<svg xmlns="http://www.w3.org/2000/svg" version="1.1" xmlns:xlink="http://www.w3.org/1999/xlink" xmlns:svgjs="http://svgjs.dev/svgjs" width="128" height="128" viewBox="0 0 128 128"><g transform="matrix(0.8046875,0,0,0.8046875,12.48638439892676,10.759219531249997)"><svg viewBox="0 0 91 95" data-background-color="#ffffff" preserveAspectRatio="xMidYMid meet" height="133" width="128" xmlns="http://www.w3.org/2000/svg" xmlns:xlink="http://www.w3.org/1999/xlink"><g id="tight-bounds" transform="matrix(1,0,0,1,0.01202931745305591,-0.24049999999999727)"><svg viewBox="0 0 90.97594136509389 95.481" height="95.481" width="90.97594136509389"><g><svg viewBox="0 0 90.97594136509389 95.481" height="95.481" width="90.97594136509389"><g><svg viewBox="0 0 90.97594136509389 95.481" height="95.481" width="90.97594136509389"><g id="textblocktransform"><svg viewBox="0 0 90.97594136509389 95.481" height="95.481" width="90.97594136509389" id="textblock"><g><svg viewBox="0 0 90.97594136509389 95.481" height="95.481" width="90.97594136509389"><g><svg viewBox="0 0 90.97594136509389 95.481" height="95.481" width="90.97594136509389"><g><svg xmlns="http://www.w3.org/2000/svg" xmlns:xlink="http://www.w3.org/1999/xlink" version="1.1" x="0" y="0" viewBox="24 23.425 52 54.575" enable-background="new 0 0 100 100" xml:space="preserve" height="95.481" width="90.97594136509389" class="icon-icon-0" data-fill-palette-color="accent" id="icon-0"><g fill="#4a596d" data-fill-palette-color="accent"><g fill="#4a596d" data-fill-palette-color="accent"><g fill="#4a596d" data-fill-palette-color="accent"><path d="M24.1 75.2l5.6-9.8L71 24.1c0.9-0.9 2.6-0.9 3.6 0l0.7 0.7c0.5 0.5 0.7 1.1 0.7 1.8 0 0.7-0.3 1.3-0.7 1.8L33.8 69.7 24.1 75.2zM30.4 66.1l-3.7 6.5 6.5-3.7 41.3-41.3c0.3-0.3 0.4-0.7 0.4-1.1 0-0.4-0.2-0.8-0.4-1.1l-0.7-0.7c-0.6-0.6-1.6-0.6-2.1 0L30.4 66.1z" fill="#ffffff" data-fill-palette-color="accent"></path></g><g fill="#4a596d" data-fill-palette-color="accent"><polygon points="55.1,38.6 54.4,37.9 65.7,26.6 67.1,28 66.4,28.7 65.7,28    " fill="#ffffff" data-fill-palette-color="accent"></polygon></g><g fill="#4a596d" data-fill-palette-color="accent"><rect x="29.4" y="67.4" transform="matrix(0.7071 0.7071 -0.7071 0.7071 57.2263 -2.3201)" width="4" height="1" fill="#ffffff" data-fill-palette-color="accent"></rect></g></g><g fill="#4a596d" data-fill-palette-color="accent"><rect x="24" y="77" width="39" height="1" fill="#ffffff" data-fill-palette-color="accent"></rect></g></g></svg></g></svg></g></svg></g></svg></g></svg></g></svg></g><defs></defs></svg><rect width="90.97594136509389" height="95.481" fill="none" stroke="none" visibility="hidden"></rect></g></svg></g></svg>